# xmcd CD database file
#
# Track frame offsets:
#	150
#	11010
#	22462
#	34865
#	45040
#	55470
#	69612
#	82317
#	92810
#	101560
#	114990
#	127435
#	138210
#	152250
#	163455
#	176550
#	188297
#	199230
#	204780
#	216455
#	226730
#	237955
#	249462
#	260930
#
# Disc length: 3619 seconds
#
# Revision: 4
# Processed by: cddbd v1.5.2PL0 Copyright (c) Steve Scherf et al.
# Submitted via: CDex 1.51
#
DISCID=5a0e2118
DTITLE=Various Artist - The Country Album (24 Country Classics)
DYEAR=1900
DGENRE=Country
TTITLE0=Guy Mitchel - Singing The Blues
TTITLE1=Patsy Cline - I've Loved and Lost Again
TTITLE2=Kenny Rogers - Reuben James
TTITLE3=Carl Perkins - Dady Sang Bass
TTITLE4=Gerald W. Gropp - Money
TTITLE5=Freddy Fender - Wasted Days and Wasted Nights
TTITLE6=Farron Young - It's Four In The Morning
TTITLE7=Patsy Cline - Honky Tonk Merry-Go-Round
TTITLE8=Patsy Cline - Come On In And Make Yourself At Home
TTITLE9=Kenny Rogers - Shine On Ruby Mountain
TTITLE10=Frankie Laine - High Noon
TTITLE11=Freddy Fender - The Wild Side Of Life
TTITLE12=Kenny Rogers - Sunshine
TTITLE13=Razzy Bailey - 9,999,999 Tears
TTITLE14=Kenny Rogers - Rubby Don't Take Your Love To Town
TTITLE15=Waylon Jennings - Crying
TTITLE16=Dolly Parton - Honky Tonk Angels
TTITLE17=Willie Nelosn - The Ghost
TTITLE18=Frankie Laine - Mule Train
TTITLE19=Frankie Laine - I Believe
TTITLE20=Waylon Jennings - Sally Was A Good Old Girl
TTITLE21=Willie Nelson - Touch Me
TTITLE22=Guy Mitchel - Heartaches By The Number
TTITLE23=Kenny Rogers - Tickets To Nowhere
EXTD=
EXTT0=
EXTT1=
EXTT2=
EXTT3=
EXTT4=
EXTT5=
EXTT6=
EXTT7=
EXTT8=
EXTT9=
EXTT10=
EXTT11=
EXTT12=
EXTT13=
EXTT14=
EXTT15=
EXTT16=
EXTT17=
EXTT18=
EXTT19=
EXTT20=
EXTT21=
EXTT22=
EXTT23=
PLAYORDER=
